<svg width="129" height="28" viewBox="0 0 129 28" fill="none" xmlns="http://www.w3.org/2000/svg">
<g clip-path="url(#clip0_2_308)">
<path d="M0.575348 28H10.0685C14.57 28 18.2192 24.3508 18.2192 19.8493H8.72603C4.22453 19.8493 0.575348 23.4985 0.575348 28Z" fill="#F22BB2"/>
<path d="M1 8.15069V20.137C5.5015 20.137 9.15069 16.4878 9.15069 11.9863V0C4.64919 0 1 3.64919 1 8.15069Z" fill="#8C30F5"/>
<path d="M27.4247 0H17.9315C13.43 0 9.78082 3.64919 9.78082 8.15068H19.274C23.7755 8.15068 27.4247 4.5015 27.4247 0Z" fill="#FE9A22"/>
<path d="M27.4247 19.3699V7.38358C22.9232 7.38358 19.274 11.0328 19.274 15.5343V27.5206C23.7755 27.5206 27.4247 23.8714 27.4247 19.3699Z" fill="#2EC5CE"/>
</g>
<path d="M46.596 10.44H43.74V18H41.01V10.44H38.14V8.06H46.596V10.44ZM46.0726 15.774C46.0726 15.2793 46.208 14.8453 46.4786 14.472C46.7493 14.0893 47.1226 13.7907 47.5986 13.576C48.084 13.3613 48.6346 13.254 49.2506 13.254C49.54 13.254 49.8106 13.2773 50.0626 13.324C50.324 13.3707 50.548 13.4407 50.7346 13.534V13.31C50.7346 12.9647 50.632 12.708 50.4266 12.54C50.2306 12.372 49.9086 12.288 49.4606 12.288C49.05 12.288 48.6626 12.358 48.2986 12.498C47.944 12.6287 47.5706 12.8247 47.1786 13.086L46.4086 11.434C46.9033 11.1167 47.4213 10.8833 47.9626 10.734C48.5133 10.5753 49.1013 10.496 49.7266 10.496C50.8933 10.496 51.794 10.762 52.4286 11.294C53.0726 11.8167 53.3946 12.596 53.3946 13.632V15.06C53.3946 15.312 53.432 15.4893 53.5066 15.592C53.5813 15.6853 53.712 15.7413 53.8986 15.76V18C53.684 18.0467 53.4786 18.0793 53.2826 18.098C53.096 18.126 52.928 18.14 52.7786 18.14C52.3026 18.14 51.9386 18.056 51.6866 17.888C51.444 17.7107 51.2853 17.454 51.2106 17.118L51.1546 16.852C50.828 17.272 50.45 17.594 50.0206 17.818C49.5913 18.0327 49.134 18.14 48.6486 18.14C48.1633 18.14 47.7246 18.0373 47.3326 17.832C46.9406 17.6267 46.6326 17.3467 46.4086 16.992C46.1846 16.628 46.0726 16.222 46.0726 15.774ZM50.3846 15.956C50.4873 15.8813 50.5713 15.802 50.6366 15.718C50.702 15.6247 50.7346 15.5313 50.7346 15.438V14.892C50.5853 14.836 50.4126 14.7893 50.2166 14.752C50.03 14.7147 49.862 14.696 49.7126 14.696C49.3953 14.696 49.1246 14.7753 48.9006 14.934C48.686 15.0927 48.5786 15.2933 48.5786 15.536C48.5786 15.6667 48.616 15.788 48.6906 15.9C48.7653 16.0027 48.868 16.0867 48.9986 16.152C49.1293 16.208 49.2786 16.236 49.4466 16.236C49.6053 16.236 49.7686 16.2127 49.9366 16.166C50.114 16.11 50.2633 16.04 50.3846 15.956ZM57.8135 18.14C57.1695 18.14 56.5348 18.0373 55.9095 17.832C55.2935 17.6173 54.7708 17.3093 54.3415 16.908L55.2515 15.27C55.7088 15.5687 56.1475 15.802 56.5675 15.97C56.9968 16.138 57.3842 16.222 57.7295 16.222C57.9255 16.222 58.0702 16.1987 58.1635 16.152C58.2568 16.096 58.3035 16.0073 58.3035 15.886C58.3035 15.802 58.2708 15.732 58.2055 15.676C58.1402 15.62 58.0328 15.564 57.8835 15.508C57.7435 15.452 57.5615 15.3913 57.3375 15.326C56.7588 15.1207 56.2735 14.9293 55.8815 14.752C55.4988 14.5747 55.2095 14.36 55.0135 14.108C54.8268 13.8467 54.7335 13.5013 54.7335 13.072C54.7335 12.568 54.8595 12.1247 55.1115 11.742C55.3635 11.35 55.7228 11.042 56.1895 10.818C56.6655 10.594 57.2348 10.482 57.8975 10.482C58.3922 10.482 58.8868 10.5613 59.3815 10.72C59.8855 10.8693 60.3708 11.1447 60.8375 11.546L59.8295 13.17C59.3628 12.8807 58.9662 12.6753 58.6395 12.554C58.3222 12.4327 58.0375 12.372 57.7855 12.372C57.6642 12.372 57.5568 12.386 57.4635 12.414C57.3795 12.442 57.3142 12.484 57.2675 12.54C57.2208 12.596 57.1975 12.6707 57.1975 12.764C57.1975 12.8573 57.2302 12.9367 57.2955 13.002C57.3608 13.058 57.4635 13.114 57.6035 13.17C57.7435 13.2167 57.9208 13.2727 58.1355 13.338C58.7702 13.5247 59.2882 13.716 59.6895 13.912C60.0908 14.0987 60.3848 14.3273 60.5715 14.598C60.7675 14.8687 60.8655 15.2233 60.8655 15.662C60.8655 16.4367 60.5902 17.0433 60.0395 17.482C59.4982 17.9207 58.7562 18.14 57.8135 18.14ZM66.7312 18L65.0652 15.312L64.5332 15.9V18H61.8732V7.78H64.5332V13.366L66.4932 10.636H69.2932L66.7592 13.856L69.5452 18H66.7312ZM77.6858 10.44H74.8298V18H72.0998V10.44H69.2298V8.06H77.6858V10.44ZM83.3184 12.904C82.8051 12.904 82.3384 12.96 81.9184 13.072C81.4984 13.184 81.1858 13.3707 80.9804 13.632V18H78.3204V10.636H80.7564V12.036C81.0178 11.5413 81.3444 11.1633 81.7364 10.902C82.1284 10.6313 82.5438 10.496 82.9824 10.496C83.0851 10.496 83.1551 10.496 83.1924 10.496C83.2391 10.496 83.2811 10.5007 83.3184 10.51V12.904ZM83.6566 15.774C83.6566 15.2793 83.792 14.8453 84.0626 14.472C84.3333 14.0893 84.7066 13.7907 85.1826 13.576C85.668 13.3613 86.2186 13.254 86.8346 13.254C87.124 13.254 87.3946 13.2773 87.6466 13.324C87.908 13.3707 88.132 13.4407 88.3186 13.534V13.31C88.3186 12.9647 88.216 12.708 88.0106 12.54C87.8146 12.372 87.4926 12.288 87.0446 12.288C86.634 12.288 86.2466 12.358 85.8826 12.498C85.528 12.6287 85.1546 12.8247 84.7626 13.086L83.9926 11.434C84.4873 11.1167 85.0053 10.8833 85.5466 10.734C86.0973 10.5753 86.6853 10.496 87.3106 10.496C88.4773 10.496 89.378 10.762 90.0126 11.294C90.6566 11.8167 90.9786 12.596 90.9786 13.632V15.06C90.9786 15.312 91.016 15.4893 91.0906 15.592C91.1653 15.6853 91.296 15.7413 91.4826 15.76V18C91.268 18.0467 91.0626 18.0793 90.8666 18.098C90.68 18.126 90.512 18.14 90.3626 18.14C89.8866 18.14 89.5226 18.056 89.2706 17.888C89.028 17.7107 88.8693 17.454 88.7946 17.118L88.7386 16.852C88.412 17.272 88.034 17.594 87.6046 17.818C87.1753 18.0327 86.718 18.14 86.2326 18.14C85.7473 18.14 85.3086 18.0373 84.9166 17.832C84.5246 17.6267 84.2166 17.3467 83.9926 16.992C83.7686 16.628 83.6566 16.222 83.6566 15.774ZM87.9686 15.956C88.0713 15.8813 88.1553 15.802 88.2206 15.718C88.286 15.6247 88.3186 15.5313 88.3186 15.438V14.892C88.1693 14.836 87.9966 14.7893 87.8006 14.752C87.614 14.7147 87.446 14.696 87.2966 14.696C86.9793 14.696 86.7086 14.7753 86.4846 14.934C86.27 15.0927 86.1626 15.2933 86.1626 15.536C86.1626 15.6667 86.2 15.788 86.2746 15.9C86.3493 16.0027 86.452 16.0867 86.5826 16.152C86.7133 16.208 86.8626 16.236 87.0306 16.236C87.1893 16.236 87.3526 16.2127 87.5206 16.166C87.698 16.11 87.8473 16.04 87.9686 15.956ZM96.0835 18.14C95.4302 18.14 94.8515 18.0373 94.3475 17.832C93.8528 17.6267 93.4328 17.3467 93.0875 16.992C92.7422 16.628 92.4808 16.2173 92.3035 15.76C92.1262 15.3027 92.0375 14.822 92.0375 14.318C92.0375 13.646 92.1915 13.0207 92.4995 12.442C92.8168 11.854 93.2742 11.3827 93.8715 11.028C94.4782 10.6733 95.2155 10.496 96.0835 10.496C96.9702 10.496 97.7168 10.6827 98.3235 11.056C98.9302 11.4293 99.3828 11.91 99.6815 12.498L97.0915 13.282C96.9702 13.1047 96.8208 12.9693 96.6435 12.876C96.4755 12.7827 96.2842 12.736 96.0695 12.736C95.8268 12.736 95.6075 12.8013 95.4115 12.932C95.2155 13.0533 95.0568 13.2307 94.9355 13.464C94.8235 13.6973 94.7675 13.982 94.7675 14.318C94.7675 14.6447 94.8235 14.9293 94.9355 15.172C95.0568 15.4053 95.2155 15.5873 95.4115 15.718C95.6075 15.8393 95.8268 15.9 96.0695 15.9C96.2188 15.9 96.3542 15.8813 96.4755 15.844C96.5968 15.7973 96.7088 15.732 96.8115 15.648C96.9235 15.564 97.0168 15.466 97.0915 15.354L99.6815 16.138C99.4855 16.53 99.2148 16.8753 98.8695 17.174C98.5335 17.4727 98.1322 17.7107 97.6655 17.888C97.2082 18.056 96.6808 18.14 96.0835 18.14ZM105.382 18L103.716 15.312L103.184 15.9V18H100.524V7.78H103.184V13.366L105.144 10.636H107.944L105.41 13.856L108.196 18H105.382ZM111.929 18.14C111.285 18.14 110.711 18.042 110.207 17.846C109.703 17.6407 109.278 17.3653 108.933 17.02C108.597 16.6747 108.34 16.278 108.163 15.83C107.986 15.382 107.897 14.9107 107.897 14.416C107.897 13.7067 108.051 13.058 108.359 12.47C108.667 11.8727 109.12 11.3967 109.717 11.042C110.314 10.678 111.052 10.496 111.929 10.496C112.806 10.496 113.544 10.6733 114.141 11.028C114.738 11.3827 115.191 11.8493 115.499 12.428C115.807 13.0067 115.961 13.6367 115.961 14.318C115.961 14.458 115.952 14.6027 115.933 14.752C115.924 14.892 115.91 15.018 115.891 15.13H110.725C110.744 15.3913 110.814 15.606 110.935 15.774C111.066 15.9327 111.224 16.0493 111.411 16.124C111.607 16.1987 111.808 16.236 112.013 16.236C112.302 16.236 112.573 16.1707 112.825 16.04C113.086 15.9093 113.259 15.7273 113.343 15.494L115.597 16.138C115.401 16.53 115.126 16.8753 114.771 17.174C114.426 17.4727 114.015 17.7107 113.539 17.888C113.063 18.056 112.526 18.14 111.929 18.14ZM110.669 13.534H113.105C113.077 13.2913 113.007 13.086 112.895 12.918C112.792 12.75 112.652 12.6193 112.475 12.526C112.307 12.4327 112.111 12.386 111.887 12.386C111.663 12.386 111.462 12.4327 111.285 12.526C111.117 12.6193 110.977 12.75 110.865 12.918C110.762 13.086 110.697 13.2913 110.669 13.534ZM121.832 12.904C121.319 12.904 120.852 12.96 120.432 13.072C120.012 13.184 119.699 13.3707 119.494 13.632V18H116.834V10.636H119.27V12.036C119.531 11.5413 119.858 11.1633 120.25 10.902C120.642 10.6313 121.057 10.496 121.496 10.496C121.599 10.496 121.669 10.496 121.706 10.496C121.753 10.496 121.795 10.5007 121.832 10.51V12.904Z" fill="black"/>
<defs>
<clipPath id="clip0_2_308">
<rect width="28" height="28" fill="white"/>
</clipPath>
</defs>
</svg>
